<svg width="41" height="41" viewBox="0 0 41 41" fill="none" xmlns="http://www.w3.org/2000/svg">
<circle cx="20.25" cy="20.3628" r="20.25" fill="#EF4444"/>
<mask id="mask0_58_22" style="mask-type:alpha" maskUnits="userSpaceOnUse" x="8" y="7" width="24" height="25">
<rect x="8" y="7.99951" width="24" height="24" fill="#D9D9D9"/>
</mask>
<g mask="url(#mask0_58_22)">
<path d="M12 28.9995C11.45 28.9995 10.9792 28.8037 10.5875 28.412C10.1958 28.0203 10 27.5495 10 26.9995V24.9995C10 24.7162 10.0958 24.4787 10.2875 24.287C10.4792 24.0953 10.7167 23.9995 11 23.9995H29C29.2833 23.9995 29.5208 24.0953 29.7125 24.287C29.9042 24.4787 30 24.7162 30 24.9995V26.9995C30 27.5495 29.8042 28.0203 29.4125 28.412C29.0208 28.8037 28.55 28.9995 28 28.9995H12ZM20 21.4995C19.4 21.4995 18.925 21.6662 18.575 21.9995C18.225 22.3328 17.5833 22.4995 16.65 22.4995C15.7167 22.4995 15.0833 22.3328 14.75 21.9995C14.4167 21.6662 13.95 21.4995 13.35 21.4995C12.8833 21.4995 12.5042 21.612 12.2125 21.837C11.9208 22.062 11.525 22.2412 11.025 22.3745C10.7583 22.4578 10.5208 22.4037 10.3125 22.212C10.1042 22.0203 10 21.7828 10 21.4995C10 21.2162 10.0958 20.9703 10.2875 20.762C10.4792 20.5537 10.7083 20.3828 10.975 20.2495C11.2583 20.0995 11.5667 19.937 11.9 19.762C12.2333 19.587 12.7167 19.4995 13.35 19.4995C14.2833 19.4995 14.9167 19.6662 15.25 19.9995C15.5833 20.3328 16.05 20.4995 16.65 20.4995C17.25 20.4995 17.725 20.3328 18.075 19.9995C18.425 19.6662 19.0667 19.4995 20 19.4995C20.9333 19.4995 21.575 19.6662 21.925 19.9995C22.275 20.3328 22.75 20.4995 23.35 20.4995C23.95 20.4995 24.4167 20.3328 24.75 19.9995C25.0833 19.6662 25.7167 19.4995 26.65 19.4995C27.25 19.4995 27.725 19.5828 28.075 19.7495C28.425 19.9162 28.7417 20.0745 29.025 20.2245C29.2917 20.3578 29.5208 20.5328 29.7125 20.7495C29.9042 20.9662 30 21.2162 30 21.4995C30 21.7828 29.9 22.0203 29.7 22.212C29.5 22.4037 29.2667 22.4578 29 22.3745C28.5167 22.2412 28.1375 22.062 27.8625 21.837C27.5875 21.612 27.2167 21.4995 26.75 21.4995C26.15 21.4995 25.6667 21.6662 25.3 21.9995C24.9333 22.3328 24.2833 22.4995 23.35 22.4995C22.4167 22.4995 21.775 22.3328 21.425 21.9995C21.075 21.6662 20.6 21.4995 20 21.4995ZM20 10.9995C21.2333 10.9995 22.4458 11.112 23.6375 11.337C24.8292 11.562 25.8958 11.912 26.8375 12.387C27.7792 12.862 28.5417 13.4787 29.125 14.237C29.7083 14.9953 30 15.9162 30 16.9995C30 17.2828 29.9042 17.5203 29.7125 17.712C29.5208 17.9037 29.2833 17.9995 29 17.9995H11C10.7167 17.9995 10.4792 17.9037 10.2875 17.712C10.0958 17.5203 10 17.2828 10 16.9995C10 15.9162 10.2917 14.9953 10.875 14.237C11.4583 13.4787 12.2208 12.862 13.1625 12.387C14.1042 11.912 15.1708 11.562 16.3625 11.337C17.5542 11.112 18.7667 10.9995 20 10.9995Z" fill="#F8FAFC"/>
</g>
</svg>
