<svg width="41" height="41" viewBox="0 0 41 41" fill="none" xmlns="http://www.w3.org/2000/svg">
<circle cx="20.75" cy="20.3628" r="20.25" fill="#F59E0B"/>
<mask id="mask0_58_95" style="mask-type:alpha" maskUnits="userSpaceOnUse" x="9" y="8" width="24" height="24">
<rect x="9" y="8" width="24" height="24" fill="#D9D9D9"/>
</mask>
<g mask="url(#mask0_58_95)">
<path d="M21.9999 20.6V17C21.9999 16.7167 21.9041 16.4792 21.7124 16.2875C21.5207 16.0958 21.2832 16 20.9999 16C20.7166 16 20.4791 16.0958 20.2874 16.2875C20.0957 16.4792 19.9999 16.7167 19.9999 17V20.975C19.9999 21.1083 20.0249 21.2375 20.0749 21.3625C20.1249 21.4875 20.1999 21.6 20.2999 21.7L23.0999 24.5C23.2832 24.6833 23.5166 24.775 23.7999 24.775C24.0832 24.775 24.3166 24.6833 24.4999 24.5C24.6832 24.3167 24.7749 24.0833 24.7749 23.8C24.7749 23.5167 24.6832 23.2833 24.4999 23.1L21.9999 20.6ZM20.9999 30C19.7499 30 18.5791 29.7625 17.4874 29.2875C16.3957 28.8125 15.4457 28.1708 14.6374 27.3625C13.8291 26.5542 13.1874 25.6042 12.7124 24.5125C12.2374 23.4208 11.9999 22.25 11.9999 21C11.9999 19.75 12.2374 18.5792 12.7124 17.4875C13.1874 16.3958 13.8291 15.4458 14.6374 14.6375C15.4457 13.8292 16.3957 13.1875 17.4874 12.7125C18.5791 12.2375 19.7499 12 20.9999 12C22.2499 12 23.4207 12.2375 24.5124 12.7125C25.6041 13.1875 26.5541 13.8292 27.3624 14.6375C28.1707 15.4458 28.8124 16.3958 29.2874 17.4875C29.7624 18.5792 29.9999 19.75 29.9999 21C29.9999 22.25 29.7624 23.4208 29.2874 24.5125C28.8124 25.6042 28.1707 26.5542 27.3624 27.3625C26.5541 28.1708 25.6041 28.8125 24.5124 29.2875C23.4207 29.7625 22.2499 30 20.9999 30ZM11.0499 15.3C10.8666 15.1167 10.7749 14.8833 10.7749 14.6C10.7749 14.3167 10.8666 14.0833 11.0499 13.9L13.8999 11.05C14.0832 10.8667 14.3166 10.775 14.5999 10.775C14.8832 10.775 15.1166 10.8667 15.2999 11.05C15.4832 11.2333 15.5749 11.4667 15.5749 11.75C15.5749 12.0333 15.4832 12.2667 15.2999 12.45L12.4499 15.3C12.2666 15.4833 12.0332 15.575 11.7499 15.575C11.4666 15.575 11.2332 15.4833 11.0499 15.3ZM30.9499 15.3C30.7666 15.4833 30.5332 15.575 30.2499 15.575C29.9666 15.575 29.7332 15.4833 29.5499 15.3L26.6999 12.45C26.5166 12.2667 26.4249 12.0333 26.4249 11.75C26.4249 11.4667 26.5166 11.2333 26.6999 11.05C26.8832 10.8667 27.1166 10.775 27.3999 10.775C27.6832 10.775 27.9166 10.8667 28.0999 11.05L30.9499 13.9C31.1332 14.0833 31.2249 14.3167 31.2249 14.6C31.2249 14.8833 31.1332 15.1167 30.9499 15.3Z" fill="#F8FAFC"/>
</g>
</svg>
