<svg width="41" height="41" viewBox="0 0 41 41" fill="none" xmlns="http://www.w3.org/2000/svg">
<circle cx="20.25" cy="20.3628" r="20.25" fill="#22C55E"/>
<mask id="mask0_58_40" style="mask-type:alpha" maskUnits="userSpaceOnUse" x="8" y="7" width="24" height="25">
<rect x="8" y="7.99951" width="24" height="24" fill="#D9D9D9"/>
</mask>
<g mask="url(#mask0_58_40)">
<path d="M20 29.9995C18.6167 29.9995 17.3167 29.737 16.1 29.212C14.8833 28.687 13.825 27.9745 12.925 27.0745C12.025 26.1745 11.3125 25.1162 10.7875 23.8995C10.2625 22.6828 10 21.3828 10 19.9995C10 18.6495 10.2792 17.337 10.8375 16.062C11.3958 14.787 12.1708 13.6662 13.1625 12.6995C14.1542 11.7328 15.3333 10.9995 16.7 10.4995C18.0667 9.99951 19.5667 9.84951 21.2 10.0495C21.45 10.0828 21.6417 10.187 21.775 10.362C21.9083 10.537 21.9833 10.7745 22 11.0745C22.0333 12.1412 22.4292 13.0537 23.1875 13.812C23.9458 14.5703 24.85 14.9662 25.9 14.9995C26.25 15.0162 26.5167 15.1162 26.7 15.2995C26.8833 15.4828 26.9833 15.7662 27 16.1495C27.0333 16.8495 27.2458 17.4245 27.6375 17.8745C28.0292 18.3245 28.575 18.6662 29.275 18.8995C29.5083 18.9828 29.6875 19.1037 29.8125 19.262C29.9375 19.4203 30 19.6162 30 19.8495C30.0333 21.2328 29.7917 22.5412 29.275 23.7745C28.7583 25.0078 28.05 26.087 27.15 27.012C26.25 27.937 25.1833 28.6662 23.95 29.1995C22.7167 29.7328 21.4 29.9995 20 29.9995ZM18.5 17.9995C18.9167 17.9995 19.2708 17.8537 19.5625 17.562C19.8542 17.2703 20 16.9162 20 16.4995C20 16.0828 19.8542 15.7287 19.5625 15.437C19.2708 15.1453 18.9167 14.9995 18.5 14.9995C18.0833 14.9995 17.7292 15.1453 17.4375 15.437C17.1458 15.7287 17 16.0828 17 16.4995C17 16.9162 17.1458 17.2703 17.4375 17.562C17.7292 17.8537 18.0833 17.9995 18.5 17.9995ZM16.5 22.9995C16.9167 22.9995 17.2708 22.8537 17.5625 22.562C17.8542 22.2703 18 21.9162 18 21.4995C18 21.0828 17.8542 20.7287 17.5625 20.437C17.2708 20.1453 16.9167 19.9995 16.5 19.9995C16.0833 19.9995 15.7292 20.1453 15.4375 20.437C15.1458 20.7287 15 21.0828 15 21.4995C15 21.9162 15.1458 22.2703 15.4375 22.562C15.7292 22.8537 16.0833 22.9995 16.5 22.9995ZM23 23.9995C23.2833 23.9995 23.5208 23.9037 23.7125 23.712C23.9042 23.5203 24 23.2828 24 22.9995C24 22.7162 23.9042 22.4787 23.7125 22.287C23.5208 22.0953 23.2833 21.9995 23 21.9995C22.7167 21.9995 22.4792 22.0953 22.2875 22.287C22.0958 22.4787 22 22.7162 22 22.9995C22 23.2828 22.0958 23.5203 22.2875 23.712C22.4792 23.9037 22.7167 23.9995 23 23.9995Z" fill="#F8FAFC"/>
</g>
</svg>
