<svg width="41" height="42" viewBox="0 0 41 42" fill="none" xmlns="http://www.w3.org/2000/svg">
<circle cx="20.25" cy="20.8628" r="20.25" fill="#22C55E"/>
<mask id="mask0_58_33" style="mask-type:alpha" maskUnits="userSpaceOnUse" x="8" y="8" width="24" height="25">
<rect x="8" y="8.6123" width="24" height="24" fill="#D9D9D9"/>
</mask>
<g mask="url(#mask0_58_33)">
<path d="M20 30.6123C17.7167 30.6123 15.8125 29.829 14.2875 28.2623C12.7625 26.6956 12 24.7456 12 22.4123C12 21.379 12.2333 20.3456 12.7 19.3123C13.1667 18.279 13.75 17.2873 14.45 16.3373C15.15 15.3873 15.9083 14.4956 16.725 13.6623C17.5417 12.829 18.3 12.104 19 11.4873C19.1333 11.354 19.2875 11.2581 19.4625 11.1998C19.6375 11.1415 19.8167 11.1123 20 11.1123C20.1833 11.1123 20.3625 11.1415 20.5375 11.1998C20.7125 11.2581 20.8667 11.354 21 11.4873C21.7 12.104 22.4583 12.829 23.275 13.6623C24.0917 14.4956 24.85 15.3873 25.55 16.3373C26.25 17.2873 26.8333 18.279 27.3 19.3123C27.7667 20.3456 28 21.379 28 22.4123C28 24.7456 27.2375 26.6956 25.7125 28.2623C24.1875 29.829 22.2833 30.6123 20 30.6123ZM20.275 27.6123C20.475 27.5956 20.6458 27.5165 20.7875 27.3748C20.9292 27.2331 21 27.0623 21 26.8623C21 26.629 20.925 26.4415 20.775 26.2998C20.625 26.1581 20.4333 26.0956 20.2 26.1123C19.5167 26.1623 18.7917 25.9748 18.025 25.5498C17.2583 25.1248 16.775 24.354 16.575 23.2373C16.5417 23.054 16.4542 22.904 16.3125 22.7873C16.1708 22.6706 16.0083 22.6123 15.825 22.6123C15.5917 22.6123 15.4 22.6998 15.25 22.8748C15.1 23.0498 15.05 23.254 15.1 23.4873C15.3833 25.004 16.05 26.0873 17.1 26.7373C18.15 27.3873 19.2083 27.679 20.275 27.6123Z" fill="#F8FAFC"/>
</g>
</svg>
