<svg width="41" height="42" viewBox="0 0 41 42" fill="none" xmlns="http://www.w3.org/2000/svg">
<circle cx="20.75" cy="20.8628" r="20.25" fill="#F59E0B"/>
<mask id="mask0_58_88" style="mask-type:alpha" maskUnits="userSpaceOnUse" x="9" y="8" width="24" height="25">
<rect x="9" y="8.99951" width="24" height="24" fill="#D9D9D9"/>
</mask>
<g mask="url(#mask0_58_88)">
<path d="M13 28C12.45 28 11.9792 27.8042 11.5875 27.4125C11.1958 27.0208 11 26.55 11 26V16C11 15.45 11.1958 14.9792 11.5875 14.5875C11.9792 14.1958 12.45 14 13 14H29C29.55 14 30.0208 14.1958 30.4125 14.5875C30.8042 14.9792 31 15.45 31 16V26C31 26.55 30.8042 27.0208 30.4125 27.4125C30.0208 27.8042 29.55 28 29 28H13ZM26.5 23.5H24.75C24.5333 23.5 24.3542 23.5708 24.2125 23.7125C24.0708 23.8542 24 24.0333 24 24.25C24 24.4667 24.0708 24.6458 24.2125 24.7875C24.3542 24.9292 24.5333 25 24.75 25H27C27.2833 25 27.5208 24.9042 27.7125 24.7125C27.9042 24.5208 28 24.2833 28 24V21.75C28 21.5333 27.9292 21.3542 27.7875 21.2125C27.6458 21.0708 27.4667 21 27.25 21C27.0333 21 26.8542 21.0708 26.7125 21.2125C26.5708 21.3542 26.5 21.5333 26.5 21.75V23.5ZM21 24C21.8333 24 22.5417 23.7083 23.125 23.125C23.7083 22.5417 24 21.8333 24 21C24 20.1667 23.7083 19.4583 23.125 18.875C22.5417 18.2917 21.8333 18 21 18C20.1667 18 19.4583 18.2917 18.875 18.875C18.2917 19.4583 18 20.1667 18 21C18 21.8333 18.2917 22.5417 18.875 23.125C19.4583 23.7083 20.1667 24 21 24ZM15.5 18.5H17.25C17.4667 18.5 17.6458 18.4292 17.7875 18.2875C17.9292 18.1458 18 17.9667 18 17.75C18 17.5333 17.9292 17.3542 17.7875 17.2125C17.6458 17.0708 17.4667 17 17.25 17H15C14.7167 17 14.4792 17.0958 14.2875 17.2875C14.0958 17.4792 14 17.7167 14 18V20.25C14 20.4667 14.0708 20.6458 14.2125 20.7875C14.3542 20.9292 14.5333 21 14.75 21C14.9667 21 15.1458 20.9292 15.2875 20.7875C15.4292 20.6458 15.5 20.4667 15.5 20.25V18.5Z" fill="#F8FAFC"/>
</g>
</svg>
