<svg width="41" height="42" viewBox="0 0 41 42" fill="none" xmlns="http://www.w3.org/2000/svg">
<circle cx="20.25" cy="20.8628" r="20.25" fill="#EF4444"/>
<mask id="mask0_58_15" style="mask-type:alpha" maskUnits="userSpaceOnUse" x="8" y="8" width="24" height="25">
<rect x="8" y="8.99951" width="24" height="24" fill="#D9D9D9"/>
</mask>
<g mask="url(#mask0_58_15)">
<path d="M12 22.9995C12 21.1162 12.5583 19.3079 13.675 17.5745C14.7917 15.8412 16.325 14.3245 18.275 13.0245C18.6417 12.7745 19.0208 12.762 19.4125 12.987C19.8042 13.212 20 13.5495 20 13.9995V15.2995C20 15.8662 20.1958 16.3412 20.5875 16.7245C20.9792 17.1079 21.4583 17.2995 22.025 17.2995C22.3083 17.2995 22.5792 17.237 22.8375 17.112C23.0958 16.987 23.325 16.8079 23.525 16.5745C23.6583 16.4079 23.8292 16.3037 24.0375 16.262C24.2458 16.2204 24.4417 16.2662 24.625 16.3995C25.675 17.1495 26.5 18.1079 27.1 19.2745C27.7 20.4412 28 21.6829 28 22.9995C28 24.4662 27.6417 25.8037 26.925 27.012C26.2083 28.2204 25.2667 29.1745 24.1 29.8745C24.3833 29.4745 24.6042 29.037 24.7625 28.562C24.9208 28.087 25 27.5829 25 27.0495C25 26.3829 24.875 25.7537 24.625 25.162C24.375 24.5704 24.0167 24.0412 23.55 23.5745L20 20.0995L16.475 23.5745C15.9917 24.0579 15.625 24.5912 15.375 25.1745C15.125 25.7579 15 26.3829 15 27.0495C15 27.5829 15.0792 28.087 15.2375 28.562C15.3958 29.037 15.6167 29.4745 15.9 29.8745C14.7333 29.1745 13.7917 28.2204 13.075 27.012C12.3583 25.8037 12 24.4662 12 22.9995ZM20 22.8995L22.125 24.9745C22.4083 25.2579 22.625 25.5745 22.775 25.9245C22.925 26.2745 23 26.6495 23 27.0495C23 27.8662 22.7083 28.562 22.125 29.137C21.5417 29.712 20.8333 29.9995 20 29.9995C19.1667 29.9995 18.4583 29.712 17.875 29.137C17.2917 28.562 17 27.8662 17 27.0495C17 26.6662 17.075 26.2954 17.225 25.937C17.375 25.5787 17.5917 25.2579 17.875 24.9745L20 22.8995Z" fill="#F8FAFC"/>
</g>
</svg>
