<svg width="41" height="42" viewBox="0 0 41 42" fill="none" xmlns="http://www.w3.org/2000/svg">
<circle cx="20.25" cy="20.8628" r="20.25" fill="#22C55E"/>
<mask id="mask0_58_47" style="mask-type:alpha" maskUnits="userSpaceOnUse" x="8" y="8" width="24" height="25">
<rect x="8" y="8.99951" width="24" height="24" fill="#D9D9D9"/>
</mask>
<g mask="url(#mask0_58_47)">
<path d="M20 29.9995C18.05 29.9995 16.3958 29.3204 15.0375 27.962C13.6792 26.6037 13 24.9495 13 22.9995C13 21.4328 13.4625 20.0287 14.3875 18.787C15.3125 17.5453 16.525 16.7078 18.025 16.2745C17.475 16.1412 16.9958 15.9037 16.5875 15.562C16.1792 15.2203 15.85 14.8078 15.6 14.3245C15.35 13.8412 15.175 13.3162 15.075 12.7495C14.975 12.1828 14.9583 11.6078 15.025 11.0245C15.7083 10.9412 16.3583 10.9828 16.975 11.1495C17.5917 11.3162 18.15 11.5828 18.65 11.9495C19.15 12.3162 19.5625 12.7578 19.8875 13.2745C20.2125 13.7912 20.4083 14.3745 20.475 15.0245C20.6917 14.5078 20.9542 14.0203 21.2625 13.562C21.5708 13.1037 21.9167 12.6828 22.3 12.2995C22.4833 12.1162 22.7167 12.0245 23 12.0245C23.2833 12.0245 23.5167 12.1162 23.7 12.2995C23.8833 12.4828 23.975 12.7162 23.975 12.9995C23.975 13.2828 23.8833 13.5162 23.7 13.6995C23.3333 14.0662 23.0083 14.4703 22.725 14.912C22.4417 15.3537 22.2333 15.8245 22.1 16.3245C23.5667 16.7912 24.75 17.637 25.65 18.862C26.55 20.087 27 21.4662 27 22.9995C27 24.9495 26.3208 26.6037 24.9625 27.962C23.6042 29.3204 21.95 29.9995 20 29.9995Z" fill="#F8FAFC"/>
</g>
</svg>
