<svg width="41" height="41" viewBox="0 0 41 41" fill="none" xmlns="http://www.w3.org/2000/svg">
<circle cx="20.25" cy="20.3628" r="20.25" fill="#EF4444"/>
<mask id="mask0_58_8" style="mask-type:alpha" maskUnits="userSpaceOnUse" x="8" y="7" width="24" height="25">
<rect x="8" y="7.99951" width="24" height="24" fill="#D9D9D9"/>
</mask>
<g mask="url(#mask0_58_8)">
<path d="M24 23.9995C24.8334 23.9995 25.5417 24.2912 26.125 24.8745C26.7084 25.4578 27 26.1662 27 26.9995C27 27.8328 26.7084 28.5412 26.125 29.1245C25.5417 29.7078 24.8334 29.9995 24 29.9995C23.3667 29.9995 22.7959 29.8162 22.2875 29.4495C21.7792 29.0828 21.4167 28.5995 21.2 27.9995H14.85L13.85 29.5495C13.7 29.7828 13.4875 29.9287 13.2125 29.987C12.9375 30.0453 12.6834 29.9995 12.45 29.8495C12.2167 29.6995 12.0709 29.487 12.0125 29.212C11.9542 28.937 12 28.6828 12.15 28.4495L16.1 22.3995C15.05 21.9162 14.1584 21.2037 13.425 20.262C12.6917 19.3203 12.2584 18.2745 12.125 17.1245C12.0917 16.8245 12.175 16.562 12.375 16.337C12.575 16.112 12.825 15.9995 13.125 15.9995H24.875C25.175 15.9995 25.425 16.112 25.625 16.337C25.825 16.562 25.9084 16.8245 25.875 17.1245C25.7417 18.2745 25.3084 19.3203 24.575 20.262C23.8417 21.2037 22.95 21.9162 21.9 22.3995L22.475 23.2995C22.125 23.4662 21.8375 23.6328 21.6125 23.7995C21.3875 23.9662 21.1417 24.1995 20.875 24.4995L19.875 22.9495C19.7417 22.9828 19.6 22.9995 19.45 22.9995H18.55C18.4 22.9995 18.2584 22.9828 18.125 22.9495L16.15 25.9995H21.2C21.4167 25.3995 21.7792 24.9162 22.2875 24.5495C22.7959 24.1828 23.3667 23.9995 24 23.9995ZM24 27.9995C24.2834 27.9995 24.5209 27.9037 24.7125 27.712C24.9042 27.5203 25 27.2828 25 26.9995C25 26.7162 24.9042 26.4787 24.7125 26.287C24.5209 26.0953 24.2834 25.9995 24 25.9995C23.7167 25.9995 23.4792 26.0953 23.2875 26.287C23.0959 26.4787 23 26.7162 23 26.9995C23 27.2828 23.0959 27.5203 23.2875 27.712C23.4792 27.9037 23.7167 27.9995 24 27.9995ZM15.675 12.6245C15.3917 12.2745 15.1917 11.937 15.075 11.612C14.9584 11.287 14.9084 10.9245 14.925 10.5245C14.925 10.3745 14.9792 10.2495 15.0875 10.1495C15.1959 10.0495 15.325 9.99951 15.475 9.99951C15.6084 9.99951 15.7167 10.0495 15.8 10.1495C15.8834 10.2495 15.925 10.3662 15.925 10.4995C15.9084 10.8328 15.9625 11.137 16.0875 11.412C16.2125 11.687 16.4167 11.9995 16.7 12.3495C16.9834 12.7162 17.1875 13.062 17.3125 13.387C17.4375 13.712 17.4834 14.0745 17.45 14.4745C17.4334 14.6245 17.375 14.7495 17.275 14.8495C17.175 14.9495 17.05 14.9995 16.9 14.9995C16.7667 14.9995 16.6584 14.9495 16.575 14.8495C16.4917 14.7495 16.45 14.6328 16.45 14.4995C16.4667 14.1662 16.4125 13.8578 16.2875 13.5745C16.1625 13.2912 15.9584 12.9745 15.675 12.6245ZM18.2 12.6245C17.9167 12.2912 17.7125 11.962 17.5875 11.637C17.4625 11.312 17.4084 10.9412 17.425 10.5245C17.425 10.3745 17.4792 10.2495 17.5875 10.1495C17.6959 10.0495 17.825 9.99951 17.975 9.99951C18.1084 9.99951 18.2167 10.0495 18.3 10.1495C18.3834 10.2495 18.425 10.3662 18.425 10.4995C18.4084 10.8328 18.4625 11.137 18.5875 11.412C18.7125 11.687 18.9167 11.9995 19.2 12.3495C19.4834 12.6995 19.6875 13.037 19.8125 13.362C19.9375 13.687 19.9834 14.0662 19.95 14.4995C19.9334 14.6495 19.875 14.7703 19.775 14.862C19.675 14.9537 19.55 14.9995 19.4 14.9995C19.2667 14.9995 19.1584 14.9495 19.075 14.8495C18.9917 14.7495 18.95 14.6328 18.95 14.4995C18.9667 14.1662 18.9167 13.8578 18.8 13.5745C18.6834 13.2912 18.4834 12.9745 18.2 12.6245ZM20.7 12.6245C20.4167 12.2912 20.2125 11.962 20.0875 11.637C19.9625 11.312 19.9084 10.9412 19.925 10.5245C19.925 10.3745 19.9792 10.2495 20.0875 10.1495C20.1959 10.0495 20.325 9.99951 20.475 9.99951C20.6084 9.99951 20.7167 10.0495 20.8 10.1495C20.8834 10.2495 20.925 10.3662 20.925 10.4995C20.9084 10.8328 20.9625 11.137 21.0875 11.412C21.2125 11.687 21.4167 11.9995 21.7 12.3495C21.9834 12.6995 22.1875 13.037 22.3125 13.362C22.4375 13.687 22.4834 14.0662 22.45 14.4995C22.4334 14.6495 22.375 14.7703 22.275 14.862C22.175 14.9537 22.05 14.9995 21.9 14.9995C21.7667 14.9995 21.6584 14.9495 21.575 14.8495C21.4917 14.7495 21.45 14.6328 21.45 14.4995C21.4667 14.1662 21.4167 13.8578 21.3 13.5745C21.1834 13.2912 20.9834 12.9745 20.7 12.6245Z" fill="#F8FAFC"/>
</g>
</svg>
