<svg width="41" height="41" viewBox="0 0 41 41" fill="none" xmlns="http://www.w3.org/2000/svg">
<circle cx="20.75" cy="20.3628" r="20.25" fill="#60A5FA"/>
<path d="M20.8366 15.5686L15.0959 29.0698C14.9719 29.4064 14.777 29.6722 14.5112 29.8671C14.2632 30.0443 13.9885 30.1329 13.6873 30.1329C13.2089 30.1329 12.8546 30 12.6242 29.7342C12.3939 29.4685 12.2787 29.1407 12.2787 28.7509C12.2787 28.5914 12.3053 28.4231 12.3585 28.2459L18.9762 12.3528C19.1179 11.9984 19.3305 11.7238 19.614 11.5289C19.9152 11.334 20.2342 11.2543 20.5708 11.2897C20.8897 11.2897 21.1821 11.3872 21.4478 11.5821C21.7313 11.7592 21.9351 12.0162 22.0591 12.3528L28.5971 27.927C28.6857 28.1573 28.73 28.3699 28.73 28.5648C28.73 29.0432 28.5705 29.4242 28.2516 29.7077C27.9504 29.9911 27.6137 30.1329 27.2417 30.1329C26.9227 30.1329 26.6304 30.0354 26.3646 29.8405C26.1166 29.6456 25.9217 29.3799 25.7799 29.0432L20.0658 15.7281L20.8366 15.5686ZM15.9198 25.8274L17.3815 22.771H24.5574L25.0623 25.8274H15.9198Z" fill="white"/>
</svg>
