<svg width="41" height="42" viewBox="0 0 41 42" fill="none" xmlns="http://www.w3.org/2000/svg">
<circle cx="20.75" cy="20.8628" r="20.25" fill="#60A5FA"/>
<path d="M16.084 14.6892C17.3924 14.6892 18.3669 14.9959 19.0075 15.6092C19.6481 16.2225 19.9684 17.1289 19.9684 18.3283C19.9684 18.9688 19.8116 19.5345 19.4982 20.0251C19.1847 20.5021 18.7213 20.8769 18.108 21.1495C17.4947 21.4085 16.7382 21.538 15.8387 21.538L15.9205 20.618C16.343 20.618 16.8268 20.6793 17.372 20.802C17.9172 20.911 18.4419 21.1155 18.9462 21.4153C19.4641 21.7015 19.8866 22.1104 20.2137 22.6419C20.5544 23.1598 20.7248 23.8277 20.7248 24.6454C20.7248 25.545 20.5749 26.281 20.275 26.8534C19.9888 27.4258 19.6072 27.8688 19.1302 28.1822C18.6532 28.4957 18.1421 28.7138 17.5969 28.8364C17.0517 28.9455 16.527 29 16.0227 29H10.9322C10.5778 29 10.278 28.8842 10.0326 28.6525C9.80093 28.4071 9.68508 28.1073 9.68508 27.7529V15.9363C9.68508 15.582 9.80093 15.2889 10.0326 15.0572C10.278 14.8119 10.5778 14.6892 10.9322 14.6892H16.084ZM15.716 17.1016H12.077L12.3428 16.7745V20.4749L12.0975 20.2909H15.7774C16.1726 20.2909 16.527 20.1614 16.8405 19.9024C17.1539 19.6435 17.3107 19.2687 17.3107 18.778C17.3107 18.192 17.1607 17.7695 16.8609 17.5105C16.5747 17.2379 16.1931 17.1016 15.716 17.1016ZM15.8796 22.7033H12.1588L12.3428 22.5397V26.8534L12.1384 26.6489H16.0227C16.6496 26.6489 17.1471 26.4854 17.5151 26.1583C17.8831 25.8176 18.0671 25.3133 18.0671 24.6454C18.0671 24.0321 17.9444 23.5892 17.6991 23.3166C17.4538 23.044 17.1607 22.8736 16.82 22.8055C16.4793 22.7373 16.1658 22.7033 15.8796 22.7033ZM27.3747 29.2044C26.6387 29.2044 25.9709 29.0545 25.3712 28.7547C24.7851 28.4412 24.2808 28.0187 23.8583 27.4871C23.4494 26.9556 23.1291 26.3559 22.8975 25.6881C22.6794 25.0202 22.5703 24.332 22.5703 23.6232C22.5703 23.1598 22.6181 22.601 22.7135 21.9468C22.8225 21.2926 23.0065 20.6044 23.2654 19.882C23.5244 19.1597 23.8856 18.4577 24.349 17.7763C24.8124 17.0948 25.3984 16.4815 26.1071 15.9363C26.8295 15.3912 27.7086 14.9755 28.7444 14.6892C28.908 14.6484 29.0647 14.6279 29.2146 14.6279C29.5281 14.6279 29.8075 14.7097 30.0528 14.8732C30.3118 15.0368 30.4413 15.3366 30.4413 15.7728C30.4413 16.0726 30.339 16.3384 30.1346 16.5701C29.9438 16.7882 29.6848 16.9449 29.3577 17.0403C28.8943 17.1766 28.4309 17.381 27.9675 17.6536C27.5178 17.9126 27.0953 18.2329 26.7 18.6145C26.3184 18.9961 25.9845 19.4322 25.6983 19.9229C25.4257 20.3999 25.2281 20.9178 25.1054 21.4766L24.5534 21.4562C24.7442 21.2245 24.9759 20.9792 25.2485 20.7202C25.5347 20.4476 25.8755 20.2159 26.2707 20.0251C26.6796 19.8207 27.1566 19.7185 27.7018 19.7185C28.2333 19.7185 28.758 19.8411 29.276 20.0864C29.8075 20.3318 30.2845 20.6725 30.707 21.1086C31.1432 21.5311 31.4907 22.0354 31.7497 22.6215C32.0086 23.1939 32.1381 23.8072 32.1381 24.4614C32.1381 25.3337 31.92 26.131 31.4839 26.8534C31.0614 27.5757 30.489 28.1482 29.7666 28.5707C29.0579 28.9932 28.2606 29.2044 27.3747 29.2044ZM27.3747 26.9556C27.8108 26.9556 28.1992 26.8466 28.54 26.6285C28.8943 26.4104 29.1737 26.1106 29.3782 25.729C29.5826 25.3474 29.6848 24.9248 29.6848 24.4614C29.6848 23.9844 29.5826 23.5619 29.3782 23.1939C29.1737 22.8123 28.8943 22.5125 28.54 22.2944C28.1992 22.0763 27.8108 21.9673 27.3747 21.9673C26.9385 21.9673 26.5433 22.0763 26.1889 22.2944C25.8482 22.5125 25.5756 22.8123 25.3712 23.1939C25.1667 23.5619 25.0645 23.9844 25.0645 24.4614C25.0645 24.9248 25.1667 25.3474 25.3712 25.729C25.5756 26.1106 25.8482 26.4104 26.1889 26.6285C26.5433 26.8466 26.9385 26.9556 27.3747 26.9556Z" fill="white"/>
</svg>
