<svg width="41" height="41" viewBox="0 0 41 41" fill="none" xmlns="http://www.w3.org/2000/svg">
<circle cx="20.75" cy="20.3628" r="20.25" fill="#60A5FA"/>
<path d="M27.1848 12.2996C27.6454 12.53 27.9112 12.8932 27.9821 13.3893C28.0707 13.8854 27.9466 14.3372 27.61 14.7447C27.3797 15.0637 27.0785 15.2408 26.7064 15.2763C26.352 15.3117 25.9888 15.2408 25.6167 15.0637C25.1915 14.8688 24.7397 14.7182 24.2613 14.6119C23.8006 14.5055 23.3134 14.4524 22.7995 14.4524C21.8428 14.4524 20.9834 14.603 20.2216 14.9042C19.4774 15.2054 18.8396 15.6395 18.308 16.2065C17.7765 16.7557 17.369 17.4113 17.0855 18.1732C16.8197 18.9351 16.6868 19.7767 16.6868 20.698C16.6868 21.7788 16.8374 22.7179 17.1386 23.5152C17.4575 24.3125 17.8916 24.9769 18.4409 25.5085C18.9902 26.04 19.6369 26.4387 20.381 26.7044C21.1252 26.9525 21.9314 27.0765 22.7995 27.0765C23.2779 27.0765 23.7563 27.0322 24.2347 26.9436C24.7131 26.855 25.1738 26.6956 25.6167 26.4652C25.9888 26.2881 26.352 26.2261 26.7064 26.2792C27.0785 26.3324 27.3885 26.5184 27.6366 26.8373C27.9909 27.2803 28.115 27.7409 28.0087 28.2193C27.9201 28.68 27.6543 29.0167 27.2113 29.2293C26.7507 29.4596 26.2723 29.6545 25.7762 29.814C25.2978 29.9557 24.8105 30.062 24.3144 30.1329C23.8183 30.2215 23.3134 30.2658 22.7995 30.2658C21.5238 30.2658 20.3102 30.062 19.1585 29.6545C18.0245 29.247 17.0057 28.6446 16.1021 27.8473C15.2162 27.0499 14.5163 26.0577 14.0025 24.8706C13.4887 23.6658 13.2318 22.2749 13.2318 20.698C13.2318 19.3337 13.4621 18.0757 13.9228 16.9241C14.4012 15.7724 15.0656 14.7802 15.9161 13.9474C16.7843 13.097 17.803 12.4414 18.9724 11.9807C20.1418 11.5023 21.4175 11.2631 22.7995 11.2631C23.5791 11.2631 24.341 11.3517 25.0852 11.5289C25.8293 11.7061 26.5292 11.963 27.1848 12.2996Z" fill="white"/>
</svg>
