<svg width="41" height="42" viewBox="0 0 41 42" fill="none" xmlns="http://www.w3.org/2000/svg">
<circle cx="20.75" cy="20.8628" r="20.25" fill="#60A5FA"/>
<path d="M17.0099 11.396H25.9132C26.3739 11.396 26.7548 11.5466 27.0561 11.8478C27.375 12.1313 27.5344 12.5034 27.5344 12.9641C27.5344 13.407 27.375 13.7702 27.0561 14.0537C26.7548 14.3195 26.3739 14.4524 25.9132 14.4524H18.4716L18.7108 14.0006V19.1831L18.4982 18.9705H24.7173C25.1779 18.9705 25.5589 19.1211 25.8601 19.4223C26.179 19.7058 26.3385 20.0779 26.3385 20.5385C26.3385 20.9815 26.179 21.3447 25.8601 21.6282C25.5589 21.894 25.1779 22.0269 24.7173 22.0269H18.578L18.7108 21.8142V27.1828L18.4982 26.9436H25.9132C26.3739 26.9436 26.7548 27.1031 27.0561 27.422C27.375 27.7232 27.5344 28.0776 27.5344 28.4851C27.5344 28.9281 27.375 29.2913 27.0561 29.5748C26.7548 29.8583 26.3739 30 25.9132 30H17.0099C16.5492 30 16.1594 29.8494 15.8405 29.5482C15.5393 29.2293 15.3887 28.8395 15.3887 28.3788V13.0172C15.3887 12.5566 15.5393 12.1756 15.8405 11.8744C16.1594 11.5555 16.5492 11.396 17.0099 11.396Z" fill="white"/>
</svg>
