<svg width="41" height="41" viewBox="0 0 41 41" fill="none" xmlns="http://www.w3.org/2000/svg">
<circle cx="20.75" cy="20.3628" r="20.25" fill="#60A5FA"/>
<path d="M27.0958 30C26.5997 30 26.2011 29.7962 25.8998 29.3887L19.7605 21.3093L22.179 18.8376L28.531 27.236C28.779 27.5726 28.9031 27.9358 28.9031 28.3256C28.9031 28.8217 28.717 29.2293 28.3449 29.5482C27.9729 29.8494 27.5565 30 27.0958 30ZM27.4147 11.2631C27.84 11.2631 28.1855 11.4403 28.4512 11.7947C28.7347 12.1313 28.8765 12.4768 28.8765 12.8312C28.8765 13.2033 28.717 13.5488 28.3981 13.8677L17.2623 24.5251L17.1294 20.7246L26.1125 11.8744C26.52 11.4669 26.9541 11.2631 27.4147 11.2631ZM15.9334 30C15.4373 30 15.0387 29.8494 14.7375 29.5482C14.4362 29.2293 14.2856 28.8395 14.2856 28.3788V13.0172C14.2856 12.5566 14.4451 12.1756 14.764 11.8744C15.083 11.5555 15.4905 11.396 15.9866 11.396C16.4827 11.396 16.8725 11.5555 17.156 11.8744C17.4572 12.1756 17.6078 12.5566 17.6078 13.0172V28.3788C17.6078 28.8395 17.4572 29.2293 17.156 29.5482C16.8548 29.8494 16.4473 30 15.9334 30Z" fill="white"/>
</svg>
