<svg width="894" height="362" viewBox="0 0 894 362" fill="none" xmlns="http://www.w3.org/2000/svg">
<path d="M98.5833 75.4363C102.836 75.4363 106.992 76.0162 111.051 77.176C115.111 78.3358 118.493 80.2688 121.199 82.975C123.906 85.4879 125.259 88.8707 125.259 93.1233C125.259 97.9558 123.809 101.822 120.91 104.721C118.203 107.428 115.014 108.781 111.341 108.781C109.601 108.781 106.992 108.394 103.512 107.621C100.033 106.654 96.6503 106.171 93.3642 106.171C88.5317 106.171 84.7623 107.234 82.0561 109.361C79.5432 111.487 77.8035 114 76.837 116.899C75.8705 119.606 75.3872 122.022 75.3872 124.148V272.313C75.3872 277.339 73.7442 281.591 70.4581 285.071C67.172 288.357 63.016 290 57.9902 290C52.9644 290 48.8084 288.357 45.5223 285.071C42.2362 281.591 40.5931 277.339 40.5931 272.313V124.438C40.5931 110.714 45.4256 99.1156 55.0907 89.6439C64.7557 80.1722 79.2533 75.4363 98.5833 75.4363ZM101.773 137.776C106.412 137.776 110.278 139.322 113.371 142.415C116.464 145.314 118.01 149.084 118.01 153.723C118.01 158.362 116.464 162.228 113.371 165.321C110.278 168.221 106.412 169.67 101.773 169.67H24.9358C20.2966 169.67 16.4306 168.221 13.3377 165.321C10.2449 162.228 8.69853 158.362 8.69853 153.723C8.69853 149.084 10.2449 145.314 13.3377 142.415C16.4306 139.322 20.2966 137.776 24.9358 137.776H101.773Z" fill="white"/>
<path d="M181.219 290C176.193 290 172.037 288.357 168.751 285.071C165.465 281.591 163.822 277.339 163.822 272.313V152.563C163.822 147.537 165.465 143.381 168.751 140.095C172.037 136.616 176.193 134.876 181.219 134.876C186.245 134.876 190.401 136.616 193.687 140.095C196.973 143.381 198.616 147.537 198.616 152.563V179.819L196.586 160.392C198.712 155.753 201.419 151.693 204.705 148.214C208.184 144.541 212.05 141.545 216.303 139.226C220.555 136.713 225.098 134.876 229.93 133.716C234.763 132.557 239.596 131.977 244.428 131.977C250.227 131.977 255.06 133.62 258.926 136.906C262.985 140.192 265.015 144.058 265.015 148.504C265.015 154.883 263.371 159.522 260.085 162.422C256.799 165.128 253.223 166.481 249.357 166.481C245.684 166.481 242.302 165.804 239.209 164.451C236.309 163.098 232.927 162.422 229.061 162.422C225.581 162.422 222.005 163.291 218.332 165.031C214.853 166.578 211.567 169.09 208.474 172.57C205.575 176.049 203.158 180.399 201.225 185.618C199.486 190.643 198.616 196.636 198.616 203.595V272.313C198.616 277.339 196.973 281.591 193.687 285.071C190.401 288.357 186.245 290 181.219 290Z" fill="white"/>
<path d="M634.316 137.776H703.034C707.674 137.776 711.54 139.322 714.632 142.415C717.725 145.508 719.272 149.374 719.272 154.013C719.272 158.459 717.725 162.228 714.632 165.321C711.54 168.221 707.674 169.67 703.034 169.67H634.316C629.677 169.67 625.811 168.124 622.718 165.031C619.625 161.938 618.079 158.072 618.079 153.433C618.079 148.987 619.625 145.314 622.718 142.415C625.811 139.322 629.677 137.776 634.316 137.776ZM665.341 101.532C670.367 101.532 674.426 103.272 677.519 106.751C680.805 110.037 682.448 114.193 682.448 119.219V248.247C682.448 250.953 682.931 253.176 683.898 254.916C685.057 256.656 686.507 257.912 688.247 258.685C690.18 259.459 692.21 259.845 694.336 259.845C696.655 259.845 698.782 259.459 700.715 258.685C702.648 257.719 704.871 257.236 707.384 257.236C710.09 257.236 712.506 258.492 714.632 261.005C716.952 263.518 718.112 266.997 718.112 271.443C718.112 276.856 715.116 281.301 709.123 284.781C703.324 288.26 697.042 290 690.277 290C686.217 290 681.675 289.71 676.649 289.13C671.816 288.357 667.177 286.714 662.731 284.201C658.479 281.495 654.903 277.435 652.003 272.023C649.104 266.611 647.654 259.169 647.654 249.697V119.219C647.654 114.193 649.297 110.037 652.583 106.751C656.062 103.272 660.315 101.532 665.341 101.532Z" fill="white"/>
<path d="M763.73 265.934C761.797 263.228 760.928 259.748 761.121 255.496C761.314 251.243 763.827 247.571 768.66 244.478C771.752 242.545 775.038 241.771 778.518 242.158C781.997 242.351 785.38 244.091 788.666 247.377C794.272 252.983 800.168 257.332 806.353 260.425C812.539 263.518 820.271 265.064 829.549 265.064C832.449 264.871 835.638 264.484 839.118 263.904C842.597 263.131 845.593 261.585 848.106 259.265C850.812 256.752 852.165 252.983 852.165 247.957C852.165 243.704 850.716 240.322 847.816 237.809C844.917 235.296 841.051 233.17 836.218 231.43C831.579 229.69 826.36 228.047 820.561 226.501C814.568 224.761 808.383 222.828 802.004 220.702C795.818 218.575 790.116 215.869 784.897 212.583C779.678 209.104 775.425 204.561 772.139 198.955C768.853 193.35 767.21 186.294 767.21 177.789C767.21 168.124 769.916 159.909 775.328 153.143C780.741 146.378 787.7 141.159 796.205 137.486C804.903 133.813 813.989 131.977 823.46 131.977C829.453 131.977 835.735 132.75 842.307 134.296C848.879 135.649 855.162 137.969 861.154 141.255C867.146 144.348 872.172 148.504 876.231 153.723C878.358 156.623 879.614 160.102 880.001 164.161C880.387 168.221 878.551 171.893 874.492 175.179C871.592 177.499 868.209 178.562 864.343 178.369C860.477 177.982 857.288 176.629 854.775 174.31C851.489 170.057 847.043 166.674 841.437 164.161C836.025 161.648 829.743 160.392 822.59 160.392C819.691 160.392 816.501 160.779 813.022 161.552C809.736 162.132 806.836 163.581 804.324 165.901C801.811 168.027 800.554 171.507 800.554 176.339C800.554 180.785 802.004 184.361 804.903 187.067C807.803 189.58 811.669 191.707 816.501 193.446C821.527 194.993 826.843 196.539 832.449 198.086C838.248 199.632 844.143 201.468 850.136 203.595C856.128 205.721 861.637 208.524 866.663 212.003C871.689 215.483 875.748 220.025 878.841 225.631C881.934 231.043 883.48 238.002 883.48 246.507C883.48 256.366 880.581 264.774 874.782 271.733C868.983 278.692 861.734 284.008 853.035 287.68C844.337 291.16 835.445 292.9 826.36 292.9C814.955 292.9 803.55 290.967 792.146 287.1C780.741 283.041 771.269 275.986 763.73 265.934Z" fill="white"/>
<path fill-rule="evenodd" clip-rule="evenodd" d="M390.62 139.681C392.906 136.331 389.262 132.896 385.205 132.896H329.472C304.959 132.896 284.453 153.165 291.279 176.709C310.245 242.128 370.609 289.952 442.143 289.952C513.678 289.952 574.042 242.128 593.008 176.709C599.833 153.165 579.328 132.896 554.815 132.896H495.652C491.596 132.896 487.951 136.331 490.237 139.681V139.681L503.381 158.94C508.195 165.994 502.771 175.494 494.25 174.935L470.148 173.353C466.036 173.084 462.163 175.304 460.319 178.989L449.588 200.423C445.811 207.966 435.046 207.966 431.269 200.423L420.539 178.989C418.694 175.304 414.821 173.084 410.709 173.353L386.607 174.935C378.086 175.494 372.662 165.994 377.476 158.94L390.62 139.681V139.681Z" fill="white"/>
</svg>
