<svg width="338" height="137" viewBox="0 0 338 137" fill="none" xmlns="http://www.w3.org/2000/svg">
<mask id="mask0_89_24" style="mask-type:alpha" maskUnits="userSpaceOnUse" x="3" y="28" width="331" height="83">
<path d="M37.1632 28.1154C38.7663 28.1154 40.333 28.334 41.8632 28.7713C43.3935 29.2085 44.6687 29.9372 45.6888 30.9573C46.709 31.9046 47.2191 33.1798 47.2191 34.7829C47.2191 36.6047 46.6726 38.062 45.5795 39.1551C44.5594 40.1753 43.357 40.6853 41.9725 40.6853C41.3167 40.6853 40.333 40.5396 39.0213 40.2481C37.7097 39.8838 36.4345 39.7016 35.1957 39.7016C33.374 39.7016 31.953 40.1024 30.9329 40.9039C29.9856 41.7055 29.3298 42.6528 28.9654 43.7458C28.6011 44.766 28.4189 45.6769 28.4189 46.4784V102.332C28.4189 104.227 27.7995 105.83 26.5607 107.142C25.322 108.381 23.7553 109 21.8607 109C19.9661 109 18.3994 108.381 17.1606 107.142C15.9219 105.83 15.3025 104.227 15.3025 102.332V46.5877C15.3025 41.414 17.1242 37.0419 20.7677 33.4713C24.4111 29.9007 29.8763 28.1154 37.1632 28.1154ZM38.3655 51.6157C40.1144 51.6157 41.5718 52.1986 42.7377 53.3645C43.9036 54.4576 44.4865 55.8785 44.4865 57.6274C44.4865 59.3762 43.9036 60.8336 42.7377 61.9995C41.5718 63.0925 40.1144 63.6391 38.3655 63.6391H9.4001C7.65124 63.6391 6.19386 63.0925 5.02796 61.9995C3.86206 60.8336 3.2791 59.3762 3.2791 57.6274C3.2791 55.8785 3.86206 54.4576 5.02796 53.3645C6.19386 52.1986 7.65124 51.6157 9.4001 51.6157H38.3655Z" fill="url(#paint0_linear_89_24)"/>
<path d="M68.3111 109C66.4165 109 64.8498 108.381 63.611 107.142C62.3722 105.83 61.7529 104.227 61.7529 102.332V57.1902C61.7529 55.2956 62.3722 53.7289 63.611 52.4901C64.8498 51.1785 66.4165 50.5226 68.3111 50.5226C70.2057 50.5226 71.7723 51.1785 73.0111 52.4901C74.2499 53.7289 74.8693 55.2956 74.8693 57.1902V67.4647L74.1041 60.1414C74.9057 58.3925 75.9259 56.8622 77.1646 55.5506C78.4763 54.1661 79.9337 53.0366 81.5368 52.1622C83.1399 51.2149 84.8523 50.5226 86.674 50.0854C88.4958 49.6482 90.3175 49.4296 92.1392 49.4296C94.3253 49.4296 96.147 50.049 97.6044 51.2878C99.1346 52.5265 99.8998 53.9839 99.8998 55.6599C99.8998 58.0646 99.2804 59.8134 98.0416 60.9065C96.8028 61.9266 95.4548 62.4367 93.9974 62.4367C92.6129 62.4367 91.3377 62.1817 90.1718 61.6716C89.0787 61.1615 87.8035 60.9065 86.3461 60.9065C85.0345 60.9065 83.6864 61.2344 82.3019 61.8902C80.9903 62.4732 79.7515 63.4205 78.5856 64.7321C77.4926 66.0437 76.5817 67.6833 75.853 69.6508C75.1972 71.5453 74.8693 73.8043 74.8693 76.4276V102.332C74.8693 104.227 74.2499 105.83 73.0111 107.142C71.7723 108.381 70.2057 109 68.3111 109Z" fill="url(#paint1_linear_89_24)"/>
<path d="M239.119 51.6157H265.024C266.773 51.6157 268.23 52.1986 269.396 53.3645C270.562 54.5304 271.145 55.9878 271.145 57.7367C271.145 59.4127 270.562 60.8336 269.396 61.9995C268.23 63.0925 266.773 63.6391 265.024 63.6391H239.119C237.37 63.6391 235.913 63.0561 234.747 61.8902C233.581 60.7243 232.998 59.2669 232.998 57.5181C232.998 55.8421 233.581 54.4576 234.747 53.3645C235.913 52.1986 237.37 51.6157 239.119 51.6157ZM250.814 37.9527C252.709 37.9527 254.239 38.6086 255.405 39.9202C256.644 41.159 257.263 42.7257 257.263 44.6203V93.2603C257.263 94.2805 257.445 95.1185 257.81 95.7743C258.247 96.4301 258.793 96.9038 259.449 97.1952C260.178 97.4867 260.943 97.6324 261.745 97.6324C262.619 97.6324 263.421 97.4867 264.149 97.1952C264.878 96.8309 265.716 96.6487 266.663 96.6487C267.683 96.6487 268.594 97.1224 269.396 98.0697C270.27 99.017 270.708 100.329 270.708 102.005C270.708 104.045 269.578 105.721 267.319 107.033C265.133 108.344 262.765 109 260.214 109C258.684 109 256.972 108.891 255.077 108.672C253.255 108.381 251.507 107.761 249.831 106.814C248.227 105.794 246.879 104.264 245.786 102.223C244.693 100.183 244.147 97.3774 244.147 93.8068V44.6203C244.147 42.7257 244.766 41.159 246.005 39.9202C247.317 38.6086 248.92 37.9527 250.814 37.9527Z" fill="url(#paint2_linear_89_24)"/>
<path d="M287.909 99.9278C287.18 98.9076 286.852 97.596 286.925 95.9929C286.998 94.3898 287.945 93.0053 289.767 91.8394C290.933 91.1107 292.172 90.8192 293.483 90.9649C294.795 91.0378 296.07 91.6936 297.309 92.9324C299.422 95.0456 301.645 96.6851 303.977 97.851C306.308 99.017 309.223 99.5999 312.721 99.5999C313.814 99.527 315.016 99.3813 316.328 99.1627C317.639 98.8712 318.769 98.2883 319.716 97.4138C320.736 96.4665 321.247 95.0456 321.247 93.151C321.247 91.5479 320.7 90.2727 319.607 89.3254C318.514 88.3781 317.057 87.5765 315.235 86.9207C313.486 86.2649 311.518 85.6455 309.332 85.0625C307.073 84.4067 304.742 83.678 302.337 82.8765C300.005 82.0749 297.856 81.0547 295.888 79.816C293.921 78.5043 292.318 76.7919 291.079 74.6787C289.84 72.5655 289.221 69.9058 289.221 66.6996C289.221 63.0561 290.241 59.9592 292.281 57.4088C294.321 54.8583 296.945 52.8909 300.151 51.5064C303.43 50.1219 306.855 49.4296 310.425 49.4296C312.684 49.4296 315.053 49.7211 317.53 50.304C320.008 50.8141 322.376 51.6886 324.635 52.9273C326.894 54.0932 328.788 55.6599 330.319 57.6274C331.12 58.7204 331.594 60.032 331.74 61.5623C331.885 63.0925 331.193 64.4771 329.663 65.7158C328.57 66.5903 327.295 66.991 325.837 66.9182C324.38 66.7724 323.178 66.2623 322.23 65.3879C320.991 63.7848 319.315 62.5096 317.202 61.5623C315.162 60.615 312.794 60.1414 310.098 60.1414C309.005 60.1414 307.802 60.2871 306.491 60.5786C305.252 60.7972 304.159 61.3437 303.211 62.2181C302.264 63.0197 301.79 64.3313 301.79 66.153C301.79 67.829 302.337 69.1771 303.43 70.1973C304.523 71.1446 305.98 71.9461 307.802 72.6019C309.697 73.1849 311.701 73.7679 313.814 74.3508C316 74.9338 318.222 75.626 320.481 76.4276C322.74 77.2291 324.817 78.2857 326.712 79.5974C328.606 80.909 330.137 82.6214 331.302 84.7346C332.468 86.775 333.051 89.3982 333.051 92.6045C333.051 96.3208 331.958 99.4906 329.772 102.114C327.586 104.737 324.854 106.741 321.574 108.126C318.295 109.437 314.943 110.093 311.518 110.093C307.219 110.093 302.92 109.364 298.621 107.907C294.321 106.377 290.751 103.717 287.909 99.9278Z" fill="url(#paint3_linear_89_24)"/>
<path fill-rule="evenodd" clip-rule="evenodd" d="M147.255 52.6549C148.118 51.391 146.743 50.0955 145.212 50.0955H124.202C114.961 50.0955 107.231 57.7363 109.804 66.6117C116.953 91.2731 139.709 109.302 166.675 109.302C193.642 109.302 216.398 91.2731 223.547 66.6117C226.12 57.7363 218.39 50.0955 209.149 50.0955H186.851C185.321 50.0955 183.946 51.391 184.808 52.6549V52.6549L189.763 59.9151C191.578 62.5741 189.533 66.1555 186.321 65.9447L177.235 65.3484C175.685 65.2467 174.225 66.0838 173.53 67.4728L169.485 75.5529C168.061 78.3965 164.003 78.3965 162.579 75.5529L158.534 67.4728C157.838 66.0838 156.378 65.2467 154.828 65.3484L145.743 65.9447C142.53 66.1555 140.486 62.5741 142.3 59.9151L147.255 52.6549V52.6549Z" fill="url(#paint4_linear_89_24)"/>
</mask>
<g mask="url(#mask0_89_24)">
<rect width="337.19" height="137" fill="url(#paint5_linear_89_24)"/>
</g>
<defs>
<linearGradient id="paint0_linear_89_24" x1="48" y1="68.9855" x2="1.62647e-07" y2="68.9855" gradientUnits="userSpaceOnUse">
<stop stop-color="#4ADE80"/>
<stop offset="1" stop-color="#60A5FA"/>
</linearGradient>
<linearGradient id="paint1_linear_89_24" x1="102.648" y1="68.9855" x2="54.6481" y2="68.9855" gradientUnits="userSpaceOnUse">
<stop stop-color="#4ADE80"/>
<stop offset="1" stop-color="#60A5FA"/>
</linearGradient>
<linearGradient id="paint2_linear_89_24" x1="276.358" y1="68.9855" x2="231.358" y2="68.9855" gradientUnits="userSpaceOnUse">
<stop stop-color="#4ADE80"/>
<stop offset="1" stop-color="#60A5FA"/>
</linearGradient>
<linearGradient id="paint3_linear_89_24" x1="337.193" y1="68.9855" x2="284.193" y2="68.9855" gradientUnits="userSpaceOnUse">
<stop stop-color="#4ADE80"/>
<stop offset="1" stop-color="#60A5FA"/>
</linearGradient>
<linearGradient id="paint4_linear_89_24" x1="224.048" y1="79.9083" x2="109.303" y2="79.9083" gradientUnits="userSpaceOnUse">
<stop stop-color="#4ADE80"/>
<stop offset="1" stop-color="#60A5FA"/>
</linearGradient>
<linearGradient id="paint5_linear_89_24" x1="337.19" y1="68.9855" x2="1.14256e-06" y2="68.9855" gradientUnits="userSpaceOnUse">
<stop stop-color="#4ADE80"/>
<stop offset="1" stop-color="#60A5FA"/>
</linearGradient>
</defs>
</svg>
