<svg width="310" height="313" viewBox="0 0 310 313" fill="none" xmlns="http://www.w3.org/2000/svg">
<g clip-path="url(#clip0_20_189)">
<path fill-rule="evenodd" clip-rule="evenodd" d="M150.996 94.2593C155.015 93.7107 155.121 88.7036 152.403 85.6933L115.049 44.3308C98.6191 26.138 69.8332 24.5047 56.9346 45.3502C21.0945 103.272 26.0595 180.125 74.0038 233.214C121.948 286.304 197.899 299.05 259.162 269.28C281.21 258.565 282.509 229.762 266.08 211.57L226.427 167.662C223.708 164.651 218.717 164.249 217.762 168.191V168.191L212.278 190.854C210.27 199.154 199.584 201.496 194.288 194.797L179.308 175.85C176.752 172.618 172.509 171.231 168.537 172.332L145.438 178.734C137.309 180.987 130.093 172.997 133.16 165.139L141.876 142.809C143.374 138.97 142.426 134.607 139.47 131.737L122.142 114.91C116.016 108.96 119.432 98.5677 127.893 97.4128L150.996 94.2593V94.2593Z" fill="black"/>
</g>
<defs>
<clipPath id="clip0_20_189">
<rect width="310" height="313" fill="white"/>
</clipPath>
</defs>
</svg>
