<svg width="30" height="22" viewBox="0 0 30 22" fill="none" xmlns="http://www.w3.org/2000/svg">
<g clip-path="url(#clip0_60_14)">
<path fill-rule="evenodd" clip-rule="evenodd" d="M28.3639 2.06167C28.8297 2.52751 29.1654 3.10725 29.3374 3.74316C30.3283 7.73152 30.0994 14.0307 29.3567 18.173C29.1846 18.809 28.8489 19.3887 28.3831 19.8546C27.9172 20.3204 27.3375 20.6561 26.7015 20.8282C24.3736 21.4631 15.0039 21.4631 15.0039 21.4631C15.0039 21.4631 5.63405 21.4631 3.306 20.8282C2.6701 20.6561 2.09037 20.3204 1.62455 19.8545C1.15873 19.3887 0.823074 18.809 0.650999 18.173C-0.345681 14.202 -0.0725165 7.89898 0.631663 3.7625C0.80372 3.12657 1.13937 2.5468 1.60519 2.08094C2.07101 1.61508 2.65075 1.27938 3.28666 1.10727C5.61471 0.472344 14.9848 0.453125 14.9848 0.453125C14.9848 0.453125 24.3544 0.453125 26.6824 1.08805C27.3183 1.26015 27.8981 1.59583 28.3639 2.06167ZM19.7753 10.958L12.0024 15.4602V6.45593L19.7753 10.958Z" fill="black"/>
</g>
<defs>
<clipPath id="clip0_60_14">
<rect width="30" height="21.0938" fill="white" transform="translate(0 0.453125)"/>
</clipPath>
</defs>
</svg>
